<svg width="532" height="457" viewBox="0 0 532 457" fill="none" xmlns="http://www.w3.org/2000/svg">
<rect width="531.331" height="456.328" rx="22.0241" fill="white"/>
<path d="M34.6659 48.0361V32.6193H44.2023V34.1389H36.5159V39.5128H43.5416V41.0104H36.5159V46.5165H44.2023V48.0361H34.6659ZM45.3356 48.0361L49.1237 42.5521L45.3356 37.0902H47.3398L50.4011 41.6051L53.4624 37.0902H55.4446L51.6785 42.5521L55.4446 48.0361H53.4624L50.4011 43.5212L47.3398 48.0361H45.3356ZM56.8552 52.8814V37.0902H58.529L58.7052 38.8961C58.9401 38.5291 59.2411 38.1914 59.6082 37.883C59.9753 37.56 60.4158 37.3031 60.9296 37.1122C61.4435 36.9213 62.0382 36.8259 62.7136 36.8259C63.8001 36.8259 64.7398 37.0755 65.5327 37.5747C66.3402 38.0739 66.9716 38.7566 67.4268 39.6229C67.8819 40.4892 68.1095 41.473 68.1095 42.5742C68.1095 43.6754 67.8819 44.6591 67.4268 45.5254C66.9716 46.3917 66.3402 47.0744 65.5327 47.5736C64.7251 48.0582 63.7781 48.3004 62.6916 48.3004C61.7959 48.3004 61.0031 48.1169 60.313 47.7498C59.6229 47.3828 59.087 46.8689 58.7052 46.2081V52.8814H56.8552ZM62.4934 46.6927C63.2128 46.6927 63.8589 46.5238 64.4315 46.1861C65.0041 45.8337 65.4446 45.3492 65.7529 44.7325C66.0759 44.1158 66.2375 43.389 66.2375 42.5521C66.2375 41.7299 66.0759 41.0104 65.7529 40.3938C65.4446 39.7771 65.0041 39.2999 64.4315 38.9622C63.8589 38.6098 63.2128 38.4336 62.4934 38.4336C61.7592 38.4336 61.1058 38.6098 60.5332 38.9622C59.9753 39.2999 59.5348 39.7771 59.2118 40.3938C58.9034 41.0104 58.7493 41.7299 58.7493 42.5521C58.7493 43.389 58.9034 44.1158 59.2118 44.7325C59.5348 45.3492 59.9753 45.8337 60.5332 46.1861C61.1058 46.5238 61.7592 46.6927 62.4934 46.6927ZM75.0455 48.3004C74.0031 48.3004 73.0781 48.0655 72.2705 47.5957C71.463 47.1111 70.8243 46.4431 70.3544 45.5915C69.8992 44.7252 69.6717 43.7121 69.6717 42.5521C69.6717 41.3922 69.8992 40.3864 70.3544 39.5348C70.8096 38.6832 71.4409 38.0225 72.2485 37.5527C73.0707 37.0681 74.0178 36.8259 75.0896 36.8259C76.1614 36.8259 77.0791 37.0681 77.8426 37.5527C78.6061 38.0225 79.1934 38.6465 79.6045 39.4247C80.0156 40.1882 80.2212 41.0251 80.2212 41.9355C80.2212 42.0823 80.2212 42.2438 80.2212 42.42C80.2212 42.5815 80.2139 42.765 80.1992 42.9706H71.0592V41.539H78.3932C78.3492 40.5553 78.0115 39.7844 77.3801 39.2265C76.7634 38.6686 75.9852 38.3896 75.0455 38.3896C74.4142 38.3896 73.8269 38.5291 73.2836 38.808C72.7404 39.087 72.2999 39.4981 71.9622 40.0414C71.6392 40.57 71.4776 41.238 71.4776 42.0456V42.6623C71.4776 43.5726 71.6465 44.3287 71.9842 44.9307C72.3219 45.5327 72.7624 45.9879 73.3056 46.2962C73.8489 46.5899 74.4289 46.7367 75.0455 46.7367C75.809 46.7367 76.4477 46.5605 76.9616 46.2081C77.4755 45.8557 77.8499 45.3786 78.0849 44.7766H79.9129C79.722 45.452 79.4063 46.054 78.9658 46.5825C78.5254 47.1111 77.9748 47.5296 77.314 47.8379C76.668 48.1463 75.9118 48.3004 75.0455 48.3004ZM82.1227 48.0361V37.0902H83.7965L83.9066 39.0283C84.259 38.3382 84.7656 37.8023 85.4263 37.4205C86.087 37.0241 86.8358 36.8259 87.6728 36.8259C88.539 36.8259 89.2879 36.9947 89.9192 37.3324C90.5506 37.6701 91.0424 38.1987 91.3948 38.9182C91.7472 39.6229 91.9234 40.5186 91.9234 41.6051V48.0361H90.0734V41.8033C90.0734 40.6727 89.8311 39.8285 89.3466 39.2705C88.8621 38.6979 88.1646 38.4116 87.2543 38.4116C86.6229 38.4116 86.0577 38.5658 85.5584 38.8741C85.0739 39.1678 84.6848 39.6082 84.3912 40.1956C84.1122 40.7682 83.9727 41.4803 83.9727 42.3319V48.0361H82.1227ZM98.3603 48.3004C97.494 48.3004 96.7158 48.1536 96.0257 47.8599C95.3356 47.5516 94.7777 47.1258 94.3519 46.5825C93.9408 46.0246 93.6838 45.3712 93.5811 44.6224H95.4751C95.5632 45.0041 95.7247 45.3565 95.9597 45.6796C96.2093 46.0026 96.5323 46.2595 96.9287 46.4504C97.3398 46.6413 97.8244 46.7367 98.3823 46.7367C98.9109 46.7367 99.3367 46.6633 99.6597 46.5165C99.9974 46.355 100.247 46.1494 100.409 45.8998C100.57 45.6355 100.651 45.3565 100.651 45.0629C100.651 44.6077 100.541 44.27 100.32 44.0498C100.115 43.8148 99.8065 43.6313 99.3954 43.4992C98.9843 43.367 98.4924 43.2422 97.9198 43.1248C97.4793 43.0367 97.0242 42.9192 96.5543 42.7724C96.0991 42.6255 95.6807 42.442 95.2989 42.2218C94.9319 41.9868 94.6382 41.7005 94.418 41.3628C94.1977 41.0104 94.0876 40.5773 94.0876 40.0634C94.0876 39.4321 94.2491 38.8741 94.5721 38.3896C94.8952 37.8904 95.3503 37.5086 95.9376 37.2443C96.5396 36.9654 97.2444 36.8259 98.052 36.8259C99.2266 36.8259 100.181 37.1122 100.915 37.6848C101.649 38.2574 102.075 39.0797 102.192 40.1515H100.364C100.306 39.5936 100.071 39.1604 99.6597 38.8521C99.2633 38.5437 98.72 38.3896 98.0299 38.3896C97.3545 38.3896 96.8406 38.5291 96.4882 38.808C96.1359 39.087 95.9597 39.4541 95.9597 39.9092C95.9597 40.1882 96.0624 40.4378 96.268 40.6581C96.4736 40.8636 96.7672 41.0398 97.149 41.1866C97.5454 41.3335 98.0079 41.4656 98.5365 41.5831C99.2413 41.7299 99.8946 41.9134 100.497 42.1337C101.099 42.3392 101.59 42.6549 101.972 43.0807C102.354 43.5065 102.545 44.1158 102.545 44.9087C102.56 45.5694 102.391 46.1567 102.038 46.6706C101.701 47.1845 101.216 47.5883 100.585 47.882C99.968 48.1609 99.2266 48.3004 98.3603 48.3004ZM109.549 48.3004C108.506 48.3004 107.581 48.0655 106.773 47.5957C105.966 47.1111 105.327 46.4431 104.857 45.5915C104.402 44.7252 104.175 43.7121 104.175 42.5521C104.175 41.3922 104.402 40.3864 104.857 39.5348C105.313 38.6832 105.944 38.0225 106.751 37.5527C107.574 37.0681 108.521 36.8259 109.593 36.8259C110.664 36.8259 111.582 37.0681 112.346 37.5527C113.109 38.0225 113.696 38.6465 114.108 39.4247C114.519 40.1882 114.724 41.0251 114.724 41.9355C114.724 42.0823 114.724 42.2438 114.724 42.42C114.724 42.5815 114.717 42.765 114.702 42.9706H105.562V41.539H112.896C112.852 40.5553 112.514 39.7844 111.883 39.2265C111.266 38.6686 110.488 38.3896 109.549 38.3896C108.917 38.3896 108.33 38.5291 107.787 38.808C107.243 39.087 106.803 39.4981 106.465 40.0414C106.142 40.57 105.981 41.238 105.981 42.0456V42.6623C105.981 43.5726 106.149 44.3287 106.487 44.9307C106.825 45.5327 107.265 45.9879 107.809 46.2962C108.352 46.5899 108.932 46.7367 109.549 46.7367C110.312 46.7367 110.951 46.5605 111.465 46.2081C111.979 45.8557 112.353 45.3786 112.588 44.7766H114.416C114.225 45.452 113.909 46.054 113.469 46.5825C113.028 47.1111 112.478 47.5296 111.817 47.8379C111.171 48.1463 110.415 48.3004 109.549 48.3004ZM120.81 48.3004C119.944 48.3004 119.166 48.1536 118.476 47.8599C117.786 47.5516 117.228 47.1258 116.802 46.5825C116.391 46.0246 116.134 45.3712 116.031 44.6224H117.925C118.013 45.0041 118.175 45.3565 118.41 45.6796C118.659 46.0026 118.982 46.2595 119.379 46.4504C119.79 46.6413 120.274 46.7367 120.832 46.7367C121.361 46.7367 121.787 46.6633 122.11 46.5165C122.447 46.355 122.697 46.1494 122.858 45.8998C123.02 45.6355 123.101 45.3565 123.101 45.0629C123.101 44.6077 122.991 44.27 122.77 44.0498C122.565 43.8148 122.256 43.6313 121.845 43.4992C121.434 43.367 120.942 43.2422 120.37 43.1248C119.929 43.0367 119.474 42.9192 119.004 42.7724C118.549 42.6255 118.131 42.442 117.749 42.2218C117.382 41.9868 117.088 41.7005 116.868 41.3628C116.648 41.0104 116.538 40.5773 116.538 40.0634C116.538 39.4321 116.699 38.8741 117.022 38.3896C117.345 37.8904 117.8 37.5086 118.388 37.2443C118.99 36.9654 119.694 36.8259 120.502 36.8259C121.677 36.8259 122.631 37.1122 123.365 37.6848C124.099 38.2574 124.525 39.0797 124.642 40.1515H122.814C122.756 39.5936 122.521 39.1604 122.11 38.8521C121.713 38.5437 121.17 38.3896 120.48 38.3896C119.804 38.3896 119.291 38.5291 118.938 38.808C118.586 39.087 118.41 39.4541 118.41 39.9092C118.41 40.1882 118.512 40.4378 118.718 40.6581C118.924 40.8636 119.217 41.0398 119.599 41.1866C119.995 41.3335 120.458 41.4656 120.986 41.5831C121.691 41.7299 122.345 41.9134 122.947 42.1337C123.549 42.3392 124.04 42.6549 124.422 43.0807C124.804 43.5065 124.995 44.1158 124.995 44.9087C125.01 45.5694 124.841 46.1567 124.488 46.6706C124.151 47.1845 123.666 47.5883 123.035 47.882C122.418 48.1609 121.677 48.3004 120.81 48.3004Z" fill="#98A2B3"/>
<path d="M42.3248 100.414V66.5737H44.9457V100.414H42.3248ZM43.9821 97.5231C42.0036 97.5231 40.2692 97.1762 38.7789 96.4824C37.2886 95.763 36.1324 94.7609 35.3101 93.4761C34.4879 92.1914 34.0768 90.6882 34.0768 88.9667H38.1237C38.1237 89.9431 38.3421 90.8424 38.7789 91.6646C39.2157 92.4612 39.8709 93.1036 40.7446 93.5918C41.6182 94.0543 42.6974 94.2855 43.9821 94.2855C45.0356 94.2855 45.9478 94.1313 46.7186 93.823C47.5151 93.5147 48.1447 93.0522 48.6072 92.4355C49.0697 91.8188 49.3009 91.0608 49.3009 90.1615C49.3009 89.2365 49.0825 88.4656 48.6457 87.849C48.2089 87.2323 47.6179 86.7184 46.8728 86.3073C46.1533 85.8962 45.3311 85.5364 44.4061 85.2281C43.5068 84.9198 42.5689 84.5986 41.5925 84.2645C39.3314 83.468 37.6483 82.4916 36.5435 81.3353C35.4386 80.1534 34.8862 78.6759 34.8862 76.903C34.8862 75.4641 35.2459 74.205 35.9653 73.1259C36.6848 72.021 37.6869 71.1602 38.9716 70.5435C40.2821 69.9269 41.8237 69.6185 43.5967 69.6185C45.3439 69.6185 46.8728 69.9397 48.1832 70.5821C49.4936 71.2244 50.5214 72.1109 51.2666 73.2415C52.0117 74.3721 52.3843 75.6953 52.3843 77.2113H48.2988C48.2988 76.3634 48.1061 75.6054 47.7207 74.9373C47.3353 74.2693 46.7828 73.7425 46.0634 73.3571C45.3439 72.9717 44.4446 72.779 43.3654 72.779C42.4918 72.779 41.7081 72.9075 41.0144 73.1644C40.3463 73.4214 39.8067 73.8325 39.3956 74.3978C39.0102 74.963 38.8175 75.6825 38.8175 76.5561C38.8175 77.327 38.9716 77.9693 39.28 78.4832C39.614 78.9971 40.0894 79.4468 40.706 79.8322C41.3484 80.1919 42.1192 80.5517 43.0186 80.9114C43.9179 81.2454 44.9457 81.618 46.1019 82.0291C47.4381 82.4916 48.6329 83.044 49.6863 83.6864C50.7655 84.3031 51.6135 85.0996 52.2301 86.076C52.8468 87.0267 53.1551 88.2601 53.1551 89.7761C53.1551 91.1122 52.8083 92.3712 52.1145 93.5532C51.4464 94.7352 50.4315 95.6987 49.0697 96.4439C47.7079 97.1633 46.012 97.5231 43.9821 97.5231ZM62.0713 97.0605V94.2855C63.8442 92.898 65.5272 91.4976 67.1203 90.0844C68.7391 88.6712 70.178 87.2708 71.437 85.8833C72.6961 84.4701 73.6853 83.0954 74.4048 81.7593C75.1242 80.3975 75.484 79.0999 75.484 77.8665C75.484 76.9929 75.3298 76.1835 75.0215 75.4384C74.7131 74.6932 74.2249 74.0894 73.5569 73.6269C72.9145 73.1387 72.028 72.8946 70.8974 72.8946C69.8183 72.8946 68.9061 73.1387 68.161 73.6269C67.4158 74.1151 66.8634 74.7703 66.5036 75.5926C66.1439 76.3891 65.964 77.2756 65.964 78.252H62.2255C62.2512 76.4019 62.6494 74.8346 63.4203 73.5498C64.1911 72.2651 65.2317 71.2887 66.5422 70.6206C67.8526 69.9526 69.3301 69.6185 70.9745 69.6185C72.6704 69.6185 74.1478 69.9397 75.4069 70.5821C76.6659 71.1988 77.6295 72.1109 78.2975 73.3186C78.9913 74.5005 79.3382 75.9523 79.3382 77.6738C79.3382 78.9072 79.0941 80.1405 78.6059 81.3739C78.1177 82.5815 77.4625 83.7635 76.6402 84.9198C75.818 86.076 74.893 87.1938 73.8652 88.2729C72.8374 89.3264 71.7839 90.3285 70.7047 91.2792C69.6256 92.2299 68.5978 93.0907 67.6214 93.8615H80.1861V97.0605H62.0713ZM91.4068 97.5231C89.5311 97.5231 87.8995 97.1762 86.512 96.4824C85.1245 95.7887 84.0324 94.8508 83.2359 93.6688C82.4393 92.4869 81.9511 91.1507 81.7713 89.6605H85.5099C85.7925 91.0223 86.4606 92.1271 87.5141 92.9751C88.5676 93.823 89.878 94.247 91.4454 94.247C92.6273 94.247 93.6423 93.9643 94.4902 93.399C95.3381 92.8338 95.9933 92.0758 96.4559 91.1251C96.9441 90.1487 97.1882 89.0823 97.1882 87.9261C97.1882 86.667 96.9441 85.575 96.4559 84.65C95.9676 83.725 95.2996 83.0055 94.4517 82.4916C93.6294 81.9777 92.6659 81.7208 91.561 81.7208C90.1735 81.7208 88.9915 82.0419 88.0151 82.6843C87.0387 83.301 86.3321 84.1104 85.8953 85.1125H82.2338L84.5463 70.081H98.9611V73.4342H87.4755L86.0109 80.9499C86.6276 80.2305 87.4498 79.6523 88.4776 79.2155C89.5311 78.753 90.7259 78.5218 92.062 78.5218C93.4496 78.5218 94.6829 78.7659 95.7621 79.2541C96.8413 79.7423 97.7663 80.4103 98.5371 81.2583C99.308 82.1062 99.8861 83.0954 100.272 84.226C100.683 85.3566 100.888 86.5771 100.888 87.8875C100.888 89.2236 100.67 90.4827 100.233 91.6646C99.8219 92.8209 99.1923 93.8487 98.3444 94.748C97.5222 95.6216 96.5329 96.3026 95.3767 96.7908C94.2204 97.279 92.8971 97.5231 91.4068 97.5231ZM114.511 97.5231C112.07 97.5231 109.976 96.9449 108.229 95.7887C106.481 94.6067 105.132 92.9751 104.182 90.8938C103.257 88.7868 102.794 86.3458 102.794 83.5708C102.794 80.7958 103.257 78.3676 104.182 76.2863C105.132 74.1793 106.481 72.5477 108.229 71.3915C109.976 70.2095 112.07 69.6185 114.511 69.6185C116.952 69.6185 119.033 70.2095 120.755 71.3915C122.502 72.5477 123.838 74.1793 124.763 76.2863C125.714 78.3676 126.189 80.7958 126.189 83.5708C126.189 86.3458 125.714 88.7868 124.763 90.8938C123.838 92.9751 122.502 94.6067 120.755 95.7887C119.033 96.9449 116.952 97.5231 114.511 97.5231ZM114.511 94.0928C116.001 94.0928 117.324 93.6688 118.481 92.8209C119.663 91.973 120.575 90.7653 121.217 89.1979C121.885 87.6306 122.219 85.7548 122.219 83.5708C122.219 81.3867 121.885 79.511 121.217 77.9436C120.575 76.3762 119.663 75.1814 118.481 74.3592C117.324 73.5113 116.001 73.0873 114.511 73.0873C112.995 73.0873 111.646 73.5113 110.464 74.3592C109.308 75.1814 108.396 76.3762 107.727 77.9436C107.059 79.511 106.725 81.3867 106.725 83.5708C106.725 85.7548 107.059 87.6306 107.727 89.1979C108.396 90.7653 109.308 91.973 110.464 92.8209C111.646 93.6688 112.995 94.0928 114.511 94.0928ZM127.099 101.801L129.296 92.898H133.189L129.682 101.801H127.099ZM143.993 97.5231C142.117 97.5231 140.485 97.1762 139.098 96.4824C137.71 95.7887 136.618 94.8508 135.822 93.6688C135.025 92.4869 134.537 91.1507 134.357 89.6605H138.096C138.378 91.0223 139.046 92.1271 140.1 92.9751C141.153 93.823 142.464 94.247 144.031 94.247C145.213 94.247 146.228 93.9643 147.076 93.399C147.924 92.8338 148.579 92.0758 149.042 91.1251C149.53 90.1487 149.774 89.0823 149.774 87.9261C149.774 86.667 149.53 85.575 149.042 84.65C148.553 83.725 147.885 83.0055 147.037 82.4916C146.215 81.9777 145.252 81.7208 144.147 81.7208C142.759 81.7208 141.577 82.0419 140.601 82.6843C139.624 83.301 138.918 84.1104 138.481 85.1125H134.82L137.132 70.081H151.547V73.4342H140.061L138.597 80.9499C139.213 80.2305 140.036 79.6523 141.063 79.2155C142.117 78.753 143.312 78.5218 144.648 78.5218C146.035 78.5218 147.269 78.7659 148.348 79.2541C149.427 79.7423 150.352 80.4103 151.123 81.2583C151.894 82.1062 152.472 83.0954 152.857 84.226C153.268 85.3566 153.474 86.5771 153.474 87.8875C153.474 89.2236 153.256 90.4827 152.819 91.6646C152.408 92.8209 151.778 93.8487 150.93 94.748C150.108 95.6216 149.119 96.3026 147.962 96.7908C146.806 97.279 145.483 97.5231 143.993 97.5231ZM166.017 97.5231C164.039 97.5231 162.369 97.1505 161.007 96.4053C159.645 95.6602 158.553 94.6709 157.731 93.4376C156.934 92.2042 156.343 90.8167 155.958 89.275C155.598 87.7333 155.418 86.166 155.418 84.5729C155.418 81.5923 155.829 78.9843 156.652 76.7488C157.474 74.5134 158.669 72.7661 160.236 71.5071C161.829 70.248 163.731 69.6185 165.94 69.6185C167.713 69.6185 169.216 69.9654 170.45 70.6592C171.709 71.3529 172.685 72.2651 173.379 73.3957C174.098 74.5262 174.535 75.7853 174.689 77.1728H171.105C170.848 75.811 170.27 74.7575 169.371 74.0123C168.471 73.2672 167.315 72.8946 165.902 72.8946C164.643 72.8946 163.512 73.2929 162.51 74.0894C161.508 74.8603 160.711 76.0422 160.12 77.6353C159.53 79.2284 159.195 81.2583 159.118 83.725C159.118 83.7507 159.118 83.7763 159.118 83.802C159.118 83.8277 159.118 83.8663 159.118 83.9177C159.53 83.1468 160.095 82.4531 160.814 81.8364C161.534 81.194 162.382 80.693 163.358 80.3332C164.36 79.9478 165.439 79.7551 166.596 79.7551C168.137 79.7551 169.563 80.1148 170.874 80.8343C172.21 81.5281 173.302 82.5301 174.15 83.8406C174.998 85.151 175.422 86.6799 175.422 88.4271C175.422 89.9945 175.036 91.4719 174.265 92.8595C173.495 94.247 172.403 95.3775 170.989 96.2512C169.602 97.0991 167.945 97.5231 166.017 97.5231ZM165.786 94.1699C166.891 94.1699 167.88 93.9258 168.754 93.4376C169.653 92.9494 170.347 92.2942 170.835 91.4719C171.349 90.624 171.606 89.6605 171.606 88.5813C171.606 87.4764 171.349 86.5128 170.835 85.6906C170.347 84.8427 169.653 84.1875 168.754 83.725C167.88 83.2625 166.878 83.0312 165.748 83.0312C164.668 83.0312 163.679 83.2881 162.78 83.802C161.881 84.3159 161.174 84.9968 160.66 85.8448C160.146 86.667 159.889 87.592 159.889 88.6198C159.889 89.6733 160.146 90.624 160.66 91.4719C161.174 92.2942 161.881 92.9494 162.78 93.4376C163.679 93.9258 164.681 94.1699 165.786 94.1699ZM189.054 97.5231C186.613 97.5231 184.519 96.9449 182.772 95.7887C181.024 94.6067 179.675 92.9751 178.725 90.8938C177.8 88.7868 177.337 86.3458 177.337 83.5708C177.337 80.7958 177.8 78.3676 178.725 76.2863C179.675 74.1793 181.024 72.5477 182.772 71.3915C184.519 70.2095 186.613 69.6185 189.054 69.6185C191.495 69.6185 193.576 70.2095 195.298 71.3915C197.045 72.5477 198.381 74.1793 199.306 76.2863C200.257 78.3676 200.732 80.7958 200.732 83.5708C200.732 86.3458 200.257 88.7868 199.306 90.8938C198.381 92.9751 197.045 94.6067 195.298 95.7887C193.576 96.9449 191.495 97.5231 189.054 97.5231ZM189.054 94.0928C190.544 94.0928 191.868 93.6688 193.024 92.8209C194.206 91.973 195.118 90.7653 195.76 89.1979C196.428 87.6306 196.762 85.7548 196.762 83.5708C196.762 81.3867 196.428 79.511 195.76 77.9436C195.118 76.3762 194.206 75.1814 193.024 74.3592C191.868 73.5113 190.544 73.0873 189.054 73.0873C187.538 73.0873 186.189 73.5113 185.007 74.3592C183.851 75.1814 182.939 76.3762 182.271 77.9436C181.603 79.511 181.269 81.3867 181.269 83.5708C181.269 85.7548 181.603 87.6306 182.271 89.1979C182.939 90.7653 183.851 91.973 185.007 92.8209C186.189 93.6688 187.538 94.0928 189.054 94.0928ZM204.998 97.2533C204.305 97.2533 203.714 97.022 203.225 96.5595C202.737 96.0713 202.493 95.4932 202.493 94.8251C202.493 94.157 202.737 93.5918 203.225 93.1292C203.714 92.6667 204.305 92.4355 204.998 92.4355C205.692 92.4355 206.27 92.6667 206.733 93.1292C207.221 93.5918 207.465 94.157 207.465 94.8251C207.465 95.4932 207.221 96.0713 206.733 96.5595C206.27 97.022 205.692 97.2533 204.998 97.2533ZM220.962 97.5231C218.521 97.5231 216.427 96.9449 214.68 95.7887C212.932 94.6067 211.584 92.9751 210.633 90.8938C209.708 88.7868 209.245 86.3458 209.245 83.5708C209.245 80.7958 209.708 78.3676 210.633 76.2863C211.584 74.1793 212.932 72.5477 214.68 71.3915C216.427 70.2095 218.521 69.6185 220.962 69.6185C223.403 69.6185 225.484 70.2095 227.206 71.3915C228.953 72.5477 230.289 74.1793 231.214 76.2863C232.165 78.3676 232.64 80.7958 232.64 83.5708C232.64 86.3458 232.165 88.7868 231.214 90.8938C230.289 92.9751 228.953 94.6067 227.206 95.7887C225.484 96.9449 223.403 97.5231 220.962 97.5231ZM220.962 94.0928C222.452 94.0928 223.776 93.6688 224.932 92.8209C226.114 91.973 227.026 90.7653 227.668 89.1979C228.337 87.6306 228.671 85.7548 228.671 83.5708C228.671 81.3867 228.337 79.511 227.668 77.9436C227.026 76.3762 226.114 75.1814 224.932 74.3592C223.776 73.5113 222.452 73.0873 220.962 73.0873C219.446 73.0873 218.097 73.5113 216.915 74.3592C215.759 75.1814 214.847 76.3762 214.179 77.9436C213.511 79.511 213.177 81.3867 213.177 83.5708C213.177 85.7548 213.511 87.6306 214.179 89.1979C214.847 90.7653 215.759 91.973 216.915 92.8209C218.097 93.6688 219.446 94.0928 220.962 94.0928Z" fill="#101828"/>
<path d="M460.233 54.3652H448.322V75.7693H460.233V54.3652Z" fill="#7C45DD"/>
<path d="M449.078 65.0684C449.076 63.007 449.543 60.9723 450.444 59.1181C451.345 57.264 452.656 55.639 454.277 54.3664C452.269 52.788 449.858 51.8064 447.318 51.5338C444.778 51.2612 442.213 51.7087 439.916 52.825C437.619 53.9413 435.682 55.6814 434.327 57.8465C432.972 60.0116 432.253 62.5142 432.253 65.0684C432.253 67.6226 432.972 70.1252 434.327 72.2903C435.682 74.4554 437.619 76.1955 439.916 77.3118C442.213 78.4281 444.778 78.8756 447.318 78.603C449.858 78.3304 452.269 77.3488 454.277 75.7704C452.656 74.4977 451.345 72.8728 450.444 71.0187C449.543 69.1645 449.076 67.1297 449.078 65.0684V65.0684Z" fill="#6E39CB"/>
<path d="M476.301 65.0684C476.301 67.6225 475.583 70.1252 474.228 72.2903C472.873 74.4553 470.936 76.1955 468.638 77.3118C466.341 78.4281 463.776 78.8756 461.237 78.603C458.697 78.3304 456.285 77.3488 454.277 75.7704C455.897 74.4964 457.207 72.8713 458.108 71.0174C459.008 69.1636 459.476 67.1294 459.476 65.0684C459.476 63.0073 459.008 60.9732 458.108 59.1194C457.207 57.2655 455.897 55.6403 454.277 54.3664C456.285 52.788 458.697 51.8064 461.237 51.5338C463.776 51.2612 466.341 51.7087 468.638 52.825C470.936 53.9413 472.873 55.6815 474.228 57.8465C475.583 60.0116 476.301 62.5142 476.301 65.0684V65.0684Z" fill="#E9E1FF"/>
<path d="M475.003 73.503V73.0648H475.179V72.9755H474.729V73.0648H474.906V73.503H475.003ZM475.876 73.503V72.9746H475.739L475.58 73.338L475.421 72.9746H475.283V73.503H475.381V73.1044L475.529 73.448H475.63L475.779 73.1035V73.503H475.876Z" fill="#E9E1FF"/>
<path d="M87.8215 424.28V414.27L85.8558 414.749V413.758L88.284 412.718H89.2255V424.28H87.8215ZM95.5727 424.478C94.5596 424.478 93.6842 424.231 92.9464 423.735C92.2196 423.229 91.658 422.529 91.2615 421.637C90.8651 420.734 90.6669 419.688 90.6669 418.499C90.6669 417.31 90.8651 416.269 91.2615 415.377C91.658 414.474 92.2196 413.775 92.9464 413.279C93.6732 412.773 94.5486 412.519 95.5727 412.519C96.5858 412.519 97.4558 412.773 98.1826 413.279C98.9094 413.775 99.4655 414.474 99.8509 415.377C100.247 416.269 100.446 417.31 100.446 418.499C100.446 419.688 100.247 420.734 99.8509 421.637C99.4655 422.529 98.9094 423.229 98.1826 423.735C97.4558 424.231 96.5858 424.478 95.5727 424.478ZM95.5727 423.256C96.2335 423.256 96.8226 423.069 97.3402 422.695C97.8577 422.309 98.2652 421.764 98.5625 421.059C98.8708 420.343 99.025 419.49 99.025 418.499C99.025 417.508 98.8708 416.66 98.5625 415.955C98.2652 415.239 97.8577 414.694 97.3402 414.32C96.8226 413.945 96.2335 413.758 95.5727 413.758C94.901 413.758 94.3008 413.945 93.7723 414.32C93.2547 414.694 92.8418 415.239 92.5334 415.955C92.2361 416.66 92.0874 417.508 92.0874 418.499C92.0874 419.49 92.2361 420.343 92.5334 421.059C92.8418 421.764 93.2547 422.309 93.7723 422.695C94.3008 423.069 94.901 423.256 95.5727 423.256Z" fill="#98A2B3"/>
<path d="M168.517 424.28V414.27L166.551 414.749V413.758L168.979 412.718H169.921V424.28H168.517ZM173.064 424.28V414.27L171.098 414.749V413.758L173.526 412.718H174.468V424.28H173.064Z" fill="#98A2B3"/>
<path d="M243.213 424.28V414.27L241.247 414.749V413.758L243.676 412.718H244.617V424.28H243.213ZM246.323 424.28V423.306C247.116 422.689 247.864 422.067 248.569 421.439C249.274 420.811 249.902 420.189 250.452 419.573C251.003 418.945 251.432 418.334 251.741 417.739C252.06 417.144 252.22 416.572 252.22 416.021C252.22 415.614 252.148 415.239 252.005 414.898C251.862 414.546 251.636 414.259 251.328 414.039C251.019 413.819 250.595 413.709 250.056 413.709C249.549 413.709 249.12 413.824 248.767 414.056C248.426 414.276 248.167 414.573 247.991 414.948C247.826 415.311 247.743 415.713 247.743 416.153H246.405C246.416 415.394 246.582 414.744 246.901 414.204C247.22 413.654 247.655 413.235 248.206 412.949C248.756 412.663 249.379 412.519 250.072 412.519C250.766 412.519 251.377 412.652 251.906 412.916C252.434 413.169 252.847 413.549 253.145 414.056C253.453 414.562 253.607 415.201 253.607 415.972C253.607 416.511 253.497 417.051 253.277 417.59C253.057 418.13 252.754 418.659 252.368 419.176C251.994 419.683 251.576 420.173 251.113 420.646C250.662 421.12 250.199 421.566 249.725 421.984C249.252 422.403 248.8 422.783 248.371 423.124H254.004V424.28H246.323Z" fill="#98A2B3"/>
<path d="M322.908 424.28V414.27L320.943 414.749V413.758L323.371 412.718H324.312V424.28H322.908ZM329.817 424.478C329.079 424.478 328.408 424.346 327.802 424.082C327.207 423.807 326.734 423.399 326.381 422.86C326.029 422.32 325.842 421.648 325.82 420.845H327.224C327.235 421.285 327.34 421.692 327.538 422.067C327.747 422.43 328.044 422.722 328.43 422.942C328.815 423.163 329.278 423.273 329.817 423.273C330.357 423.273 330.808 423.168 331.172 422.959C331.535 422.75 331.81 422.474 331.998 422.133C332.185 421.781 332.278 421.39 332.278 420.96C332.278 420.421 332.146 419.986 331.882 419.655C331.629 419.314 331.282 419.061 330.841 418.895C330.412 418.73 329.938 418.648 329.421 418.648H328.562V417.475H329.421C330.17 417.475 330.759 417.304 331.188 416.963C331.618 416.61 331.832 416.126 331.832 415.509C331.832 415.003 331.662 414.579 331.32 414.237C330.99 413.896 330.489 413.725 329.817 413.725C329.168 413.725 328.65 413.912 328.265 414.287C327.879 414.661 327.659 415.14 327.604 415.724H326.2C326.233 415.096 326.403 414.54 326.712 414.056C327.02 413.571 327.439 413.197 327.967 412.932C328.496 412.657 329.112 412.519 329.817 412.519C330.566 412.519 331.194 412.652 331.7 412.916C332.207 413.18 332.587 413.533 332.84 413.973C333.104 414.413 333.236 414.898 333.236 415.427C333.236 415.812 333.165 416.181 333.022 416.533C332.879 416.886 332.664 417.194 332.378 417.458C332.102 417.712 331.744 417.893 331.304 418.003C331.755 418.092 332.157 418.268 332.51 418.532C332.873 418.785 333.159 419.116 333.369 419.523C333.578 419.931 333.682 420.41 333.682 420.96C333.682 421.588 333.534 422.171 333.236 422.711C332.95 423.24 332.521 423.669 331.948 423.999C331.375 424.319 330.665 424.478 329.817 424.478Z" fill="#98A2B3"/>
<path d="M402.605 424.28V414.27L400.639 414.749V413.758L403.067 412.718H404.009V424.28H402.605ZM411.149 424.28V421.803H405.285V420.729L410.901 412.718H412.52V420.58H414.238V421.803H412.52V424.28H411.149ZM406.821 420.58H411.215V414.254L406.821 420.58Z" fill="#98A2B3"/>
<path d="M482.3 424.28V414.27L480.334 414.749V413.758L482.762 412.718H483.704V424.28H482.3ZM489.506 424.478C488.724 424.478 488.042 424.335 487.458 424.049C486.874 423.763 486.412 423.372 486.07 422.876C485.74 422.381 485.531 421.819 485.443 421.191H486.797C486.929 421.819 487.232 422.326 487.706 422.711C488.179 423.096 488.785 423.289 489.523 423.289C490.073 423.289 490.547 423.163 490.943 422.909C491.34 422.645 491.642 422.298 491.852 421.869C492.061 421.428 492.166 420.938 492.166 420.399C492.166 419.826 492.055 419.33 491.835 418.912C491.626 418.482 491.323 418.147 490.927 417.904C490.541 417.662 490.095 417.541 489.589 417.541C488.95 417.541 488.405 417.679 487.953 417.954C487.513 418.229 487.188 418.593 486.979 419.044H485.641L486.615 412.718H492.711V413.923H487.689L487.028 417.458C487.304 417.139 487.673 416.88 488.135 416.682C488.598 416.473 489.132 416.368 489.737 416.368C490.299 416.368 490.811 416.473 491.274 416.682C491.736 416.88 492.133 417.161 492.463 417.524C492.804 417.877 493.063 418.301 493.239 418.796C493.415 419.281 493.504 419.809 493.504 420.382C493.504 420.933 493.415 421.456 493.239 421.951C493.063 422.447 492.804 422.887 492.463 423.273C492.122 423.647 491.703 423.944 491.208 424.165C490.712 424.374 490.145 424.478 489.506 424.478Z" fill="#98A2B3"/>
<path d="M37.2482 275.678V261.175H38.388V275.678H37.2482ZM37.9585 274.439C37.1106 274.439 36.3728 274.285 35.7451 273.977C35.1174 273.669 34.6329 273.239 34.2915 272.689C33.9501 272.138 33.7794 271.499 33.7794 270.772H35.233C35.233 271.224 35.3377 271.642 35.5469 272.028C35.7561 272.402 36.0589 272.705 36.4554 272.936C36.8628 273.157 37.3639 273.267 37.9585 273.267C38.4761 273.267 38.9166 273.184 39.28 273.019C39.6544 272.843 39.9352 272.606 40.1224 272.309C40.3206 272.011 40.4197 271.675 40.4197 271.301C40.4197 270.849 40.3206 270.486 40.1224 270.211C39.9242 269.924 39.6599 269.693 39.3295 269.517C38.9992 269.341 38.6137 269.187 38.1733 269.055C37.7438 268.911 37.2923 268.757 36.8188 268.592C35.9158 268.284 35.2496 267.904 34.8201 267.452C34.3906 266.99 34.1759 266.39 34.1759 265.652C34.1759 265.024 34.319 264.474 34.6053 264C34.9027 263.526 35.3211 263.158 35.8607 262.893C36.4113 262.618 37.061 262.48 37.8099 262.48C38.5477 262.48 39.1864 262.618 39.726 262.893C40.2766 263.169 40.706 263.549 41.0144 264.033C41.3227 264.507 41.4769 265.057 41.4769 265.685H40.0233C40.0233 265.365 39.9407 265.052 39.7755 264.743C39.6103 264.435 39.357 264.182 39.0157 263.983C38.6853 263.774 38.2669 263.67 37.7603 263.67C37.3418 263.659 36.9674 263.73 36.6371 263.884C36.3177 264.028 36.0644 264.237 35.8772 264.512C35.701 264.787 35.613 265.123 35.613 265.52C35.613 265.894 35.69 266.197 35.8442 266.428C36.0094 266.659 36.2406 266.858 36.538 267.023C36.8463 267.177 37.2042 267.32 37.6116 267.452C38.0191 267.584 38.4706 267.733 38.9661 267.898C39.5277 268.085 40.0233 268.317 40.4527 268.592C40.8932 268.856 41.2346 269.198 41.4769 269.616C41.7301 270.035 41.8568 270.569 41.8568 271.218C41.8568 271.769 41.7081 272.292 41.4108 272.788C41.1245 273.272 40.695 273.669 40.1224 273.977C39.5498 274.285 38.8285 274.439 37.9585 274.439ZM44.5289 274.241V264.231L42.5632 264.71V263.719L44.9914 262.679H45.9329V274.241H44.5289ZM52.2802 274.439C51.2671 274.439 50.3916 274.192 49.6538 273.696C48.927 273.19 48.3654 272.49 47.9689 271.598C47.5725 270.695 47.3743 269.649 47.3743 268.46C47.3743 267.271 47.5725 266.23 47.9689 265.338C48.3654 264.435 48.927 263.736 49.6538 263.24C50.3806 262.734 51.256 262.48 52.2802 262.48C53.2933 262.48 54.1632 262.734 54.89 263.24C55.6168 263.736 56.1729 264.435 56.5583 265.338C56.9548 266.23 57.153 267.271 57.153 268.46C57.153 269.649 56.9548 270.695 56.5583 271.598C56.1729 272.49 55.6168 273.19 54.89 273.696C54.1632 274.192 53.2933 274.439 52.2802 274.439ZM52.2802 273.217C52.9409 273.217 53.53 273.03 54.0476 272.655C54.5652 272.27 54.9726 271.725 55.2699 271.02C55.5783 270.304 55.7324 269.451 55.7324 268.46C55.7324 267.469 55.5783 266.621 55.2699 265.916C54.9726 265.2 54.5652 264.655 54.0476 264.281C53.53 263.906 52.9409 263.719 52.2802 263.719C51.6084 263.719 51.0083 263.906 50.4797 264.281C49.9621 264.655 49.5492 265.2 49.2408 265.916C48.9435 266.621 48.7948 267.469 48.7948 268.46C48.7948 269.451 48.9435 270.304 49.2408 271.02C49.5492 271.725 49.9621 272.27 50.4797 272.655C51.0083 273.03 51.6084 273.217 52.2802 273.217ZM63.6481 274.241L59.6673 269.699L63.2847 265.949H64.9861L60.84 270.194L60.8566 269.203L65.4156 274.241H63.6481ZM58.511 274.241V262.348H59.8985V274.241H58.511Z" fill="#98A2B3"/>
<line x1="83.9307" y1="267.553" x2="491.376" y2="267.553" stroke="#D0D5DD" stroke-opacity="0.6" stroke-width="1.37651" stroke-dasharray="5.51 5.51"/>
<path d="M37.2482 220.618V206.115H38.388V220.618H37.2482ZM37.9585 219.379C37.1106 219.379 36.3728 219.225 35.7451 218.916C35.1174 218.608 34.6329 218.179 34.2915 217.628C33.9501 217.077 33.7794 216.439 33.7794 215.712H35.233C35.233 216.163 35.3377 216.582 35.5469 216.967C35.7561 217.342 36.0589 217.644 36.4554 217.876C36.8628 218.096 37.3639 218.206 37.9585 218.206C38.4761 218.206 38.9166 218.124 39.28 217.958C39.6544 217.782 39.9352 217.545 40.1224 217.248C40.3206 216.951 40.4197 216.615 40.4197 216.24C40.4197 215.789 40.3206 215.426 40.1224 215.15C39.9242 214.864 39.6599 214.633 39.3295 214.456C38.9992 214.28 38.6137 214.126 38.1733 213.994C37.7438 213.851 37.2923 213.697 36.8188 213.531C35.9158 213.223 35.2496 212.843 34.8201 212.392C34.3906 211.929 34.1759 211.329 34.1759 210.591C34.1759 209.964 34.319 209.413 34.6053 208.939C34.9027 208.466 35.3211 208.097 35.8607 207.833C36.4113 207.557 37.061 207.42 37.8099 207.42C38.5477 207.42 39.1864 207.557 39.726 207.833C40.2766 208.108 40.706 208.488 41.0144 208.972C41.3227 209.446 41.4769 209.997 41.4769 210.624H40.0233C40.0233 210.305 39.9407 209.991 39.7755 209.683C39.6103 209.374 39.357 209.121 39.0157 208.923C38.6853 208.714 38.2669 208.609 37.7603 208.609C37.3418 208.598 36.9674 208.67 36.6371 208.824C36.3177 208.967 36.0644 209.176 35.8772 209.452C35.701 209.727 35.613 210.063 35.613 210.459C35.613 210.834 35.69 211.136 35.8442 211.368C36.0094 211.599 36.2406 211.797 36.538 211.962C36.8463 212.116 37.2042 212.26 37.6116 212.392C38.0191 212.524 38.4706 212.673 38.9661 212.838C39.5277 213.025 40.0233 213.256 40.4527 213.531C40.8932 213.796 41.2346 214.137 41.4769 214.556C41.7301 214.974 41.8568 215.508 41.8568 216.158C41.8568 216.708 41.7081 217.232 41.4108 217.727C41.1245 218.212 40.695 218.608 40.1224 218.916C39.5498 219.225 38.8285 219.379 37.9585 219.379ZM43.0918 219.181V218.206C43.8847 217.589 44.6335 216.967 45.3383 216.34C46.043 215.712 46.6707 215.09 47.2213 214.473C47.7719 213.845 48.2014 213.234 48.5097 212.64C48.8291 212.045 48.9888 211.472 48.9888 210.922C48.9888 210.514 48.9172 210.14 48.774 209.798C48.6309 209.446 48.4051 209.16 48.0968 208.939C47.7884 208.719 47.3645 208.609 46.8249 208.609C46.3183 208.609 45.8889 208.725 45.5365 208.956C45.1951 209.176 44.9363 209.474 44.7601 209.848C44.595 210.211 44.5124 210.613 44.5124 211.054H43.1744C43.1854 210.294 43.3506 209.644 43.6699 209.105C43.9893 208.554 44.4243 208.136 44.9749 207.849C45.5255 207.563 46.1477 207.42 46.8414 207.42C47.5352 207.42 48.1463 207.552 48.6749 207.816C49.2035 208.07 49.6164 208.449 49.9138 208.956C50.2221 209.463 50.3763 210.101 50.3763 210.872C50.3763 211.412 50.2662 211.951 50.0459 212.491C49.8257 213.03 49.5228 213.559 49.1374 214.077C48.763 214.583 48.3446 215.073 47.8821 215.547C47.4306 216.02 46.9681 216.466 46.4945 216.885C46.021 217.303 45.5695 217.683 45.1401 218.024H50.7727V219.181H43.0918ZM56.5226 219.379C55.5095 219.379 54.634 219.131 53.8962 218.636C53.1694 218.129 52.6078 217.43 52.2114 216.538C51.8149 215.635 51.6167 214.589 51.6167 213.399C51.6167 212.21 51.8149 211.169 52.2114 210.277C52.6078 209.374 53.1694 208.675 53.8962 208.18C54.623 207.673 55.4985 207.42 56.5226 207.42C57.5357 207.42 58.4057 207.673 59.1325 208.18C59.8592 208.675 60.4154 209.374 60.8008 210.277C61.1972 211.169 61.3954 212.21 61.3954 213.399C61.3954 214.589 61.1972 215.635 60.8008 216.538C60.4154 217.43 59.8592 218.129 59.1325 218.636C58.4057 219.131 57.5357 219.379 56.5226 219.379ZM56.5226 218.157C57.1833 218.157 57.7725 217.969 58.29 217.595C58.8076 217.21 59.215 216.664 59.5124 215.96C59.8207 215.244 59.9749 214.39 59.9749 213.399C59.9749 212.408 59.8207 211.56 59.5124 210.856C59.215 210.14 58.8076 209.595 58.29 209.22C57.7725 208.846 57.1833 208.659 56.5226 208.659C55.8509 208.659 55.2507 208.846 54.7221 209.22C54.2046 209.595 53.7916 210.14 53.4833 210.856C53.1859 211.56 53.0373 212.408 53.0373 213.399C53.0373 214.39 53.1859 215.244 53.4833 215.96C53.7916 216.664 54.2046 217.21 54.7221 217.595C55.2507 217.969 55.8509 218.157 56.5226 218.157ZM67.8906 219.181L63.9097 214.638L67.5272 210.889H69.2285L65.0825 215.134L65.099 214.143L69.658 219.181H67.8906ZM62.7534 219.181V207.288H64.141V219.181H62.7534Z" fill="#98A2B3"/>
<line x1="85.1777" y1="212.492" x2="492.624" y2="212.492" stroke="#D0D5DD" stroke-opacity="0.6" stroke-width="1.37651" stroke-dasharray="5.51 5.51"/>
<path d="M37.2482 165.557V151.054H38.388V165.557H37.2482ZM37.9585 164.318C37.1106 164.318 36.3728 164.164 35.7451 163.856C35.1174 163.547 34.6329 163.118 34.2915 162.567C33.9501 162.017 33.7794 161.378 33.7794 160.651H35.233C35.233 161.103 35.3377 161.521 35.5469 161.907C35.7561 162.281 36.0589 162.584 36.4554 162.815C36.8628 163.035 37.3639 163.146 37.9585 163.146C38.4761 163.146 38.9166 163.063 39.28 162.898C39.6544 162.722 39.9352 162.485 40.1224 162.188C40.3206 161.89 40.4197 161.554 40.4197 161.18C40.4197 160.728 40.3206 160.365 40.1224 160.09C39.9242 159.803 39.6599 159.572 39.3295 159.396C38.9992 159.22 38.6137 159.066 38.1733 158.933C37.7438 158.79 37.2923 158.636 36.8188 158.471C35.9158 158.163 35.2496 157.783 34.8201 157.331C34.3906 156.869 34.1759 156.269 34.1759 155.531C34.1759 154.903 34.319 154.352 34.6053 153.879C34.9027 153.405 35.3211 153.036 35.8607 152.772C36.4113 152.497 37.061 152.359 37.8099 152.359C38.5477 152.359 39.1864 152.497 39.726 152.772C40.2766 153.048 40.706 153.427 41.0144 153.912C41.3227 154.385 41.4769 154.936 41.4769 155.564H40.0233C40.0233 155.244 39.9407 154.931 39.7755 154.622C39.6103 154.314 39.357 154.061 39.0157 153.862C38.6853 153.653 38.2669 153.549 37.7603 153.549C37.3418 153.538 36.9674 153.609 36.6371 153.763C36.3177 153.906 36.0644 154.116 35.8772 154.391C35.701 154.666 35.613 155.002 35.613 155.399C35.613 155.773 35.69 156.076 35.8442 156.307C36.0094 156.538 36.2406 156.737 36.538 156.902C36.8463 157.056 37.2042 157.199 37.6116 157.331C38.0191 157.463 38.4706 157.612 38.9661 157.777C39.5277 157.964 40.0233 158.196 40.4527 158.471C40.8932 158.735 41.2346 159.077 41.4769 159.495C41.7301 159.914 41.8568 160.448 41.8568 161.097C41.8568 161.648 41.7081 162.171 41.4108 162.667C41.1245 163.151 40.695 163.547 40.1224 163.856C39.5498 164.164 38.8285 164.318 37.9585 164.318ZM46.891 164.318C46.1532 164.318 45.4814 164.186 44.8758 163.922C44.2811 163.647 43.8076 163.239 43.4552 162.7C43.1028 162.16 42.9156 161.488 42.8936 160.684H44.2976C44.3086 161.125 44.4133 161.532 44.6115 161.907C44.8207 162.27 45.118 162.562 45.5034 162.782C45.8889 163.002 46.3514 163.113 46.891 163.113C47.4306 163.113 47.8821 163.008 48.2454 162.799C48.6088 162.589 48.8841 162.314 49.0714 161.973C49.2586 161.62 49.3522 161.229 49.3522 160.8C49.3522 160.26 49.22 159.825 48.9557 159.495C48.7024 159.154 48.3556 158.9 47.9151 158.735C47.4856 158.57 47.0121 158.487 46.4945 158.487H45.6356V157.315H46.4945C47.2434 157.315 47.8325 157.144 48.262 156.803C48.6914 156.45 48.9062 155.966 48.9062 155.349C48.9062 154.842 48.7355 154.419 48.3941 154.077C48.0638 153.736 47.5627 153.565 46.891 153.565C46.2413 153.565 45.7237 153.752 45.3383 154.127C44.9528 154.501 44.7326 154.98 44.6775 155.564H43.2735C43.3065 154.936 43.4772 154.38 43.7856 153.895C44.0939 153.411 44.5124 153.036 45.0409 152.772C45.5695 152.497 46.1862 152.359 46.891 152.359C47.6398 152.359 48.2675 152.491 48.774 152.756C49.2806 153.02 49.6605 153.372 49.9138 153.813C50.1781 154.253 50.3102 154.738 50.3102 155.266C50.3102 155.652 50.2386 156.021 50.0955 156.373C49.9523 156.726 49.7376 157.034 49.4513 157.298C49.176 157.551 48.8181 157.733 48.3776 157.843C48.8291 157.931 49.231 158.108 49.5834 158.372C49.9468 158.625 50.2331 158.955 50.4424 159.363C50.6516 159.77 50.7562 160.249 50.7562 160.8C50.7562 161.428 50.6075 162.011 50.3102 162.551C50.0239 163.079 49.5944 163.509 49.0218 163.839C48.4492 164.159 47.7389 164.318 46.891 164.318ZM56.9259 164.318C55.9128 164.318 55.0373 164.071 54.2995 163.575C53.5727 163.068 53.0111 162.369 52.6147 161.477C52.2182 160.574 52.02 159.528 52.02 158.339C52.02 157.149 52.2182 156.109 52.6147 155.217C53.0111 154.314 53.5727 153.615 54.2995 153.119C55.0263 152.613 55.9017 152.359 56.9259 152.359C57.939 152.359 58.8089 152.613 59.5357 153.119C60.2625 153.615 60.8186 154.314 61.2041 155.217C61.6005 156.109 61.7987 157.149 61.7987 158.339C61.7987 159.528 61.6005 160.574 61.2041 161.477C60.8186 162.369 60.2625 163.068 59.5357 163.575C58.8089 164.071 57.939 164.318 56.9259 164.318ZM56.9259 163.096C57.5866 163.096 58.1757 162.909 58.6933 162.534C59.2109 162.149 59.6183 161.604 59.9156 160.899C60.224 160.183 60.3781 159.33 60.3781 158.339C60.3781 157.348 60.224 156.5 59.9156 155.795C59.6183 155.079 59.2109 154.534 58.6933 154.16C58.1757 153.785 57.5866 153.598 56.9259 153.598C56.2541 153.598 55.654 153.785 55.1254 154.16C54.6078 154.534 54.1949 155.079 53.8865 155.795C53.5892 156.5 53.4406 157.348 53.4406 158.339C53.4406 159.33 53.5892 160.183 53.8865 160.899C54.1949 161.604 54.6078 162.149 55.1254 162.534C55.654 162.909 56.2541 163.096 56.9259 163.096ZM68.2938 164.12L64.313 159.578L67.9304 155.828H69.6318L65.4858 160.073L65.5023 159.082L70.0613 164.12H68.2938ZM63.1567 164.12V152.227H64.5442V164.12H63.1567Z" fill="#98A2B3"/>
<line x1="86.1777" y1="157.432" x2="493.624" y2="157.432" stroke="#D0D5DD" stroke-opacity="0.6" stroke-width="1.37651" stroke-dasharray="5.51 5.51"/>
<path d="M37.2482 330.738V316.235H38.388V330.738H37.2482ZM37.9585 329.499C37.1106 329.499 36.3728 329.345 35.7451 329.036C35.1174 328.728 34.6329 328.299 34.2915 327.748C33.9501 327.197 33.7794 326.559 33.7794 325.832H35.233C35.233 326.283 35.3377 326.702 35.5469 327.087C35.7561 327.462 36.0589 327.765 36.4554 327.996C36.8628 328.216 37.3639 328.326 37.9585 328.326C38.4761 328.326 38.9166 328.244 39.28 328.078C39.6544 327.902 39.9352 327.665 40.1224 327.368C40.3206 327.071 40.4197 326.735 40.4197 326.361C40.4197 325.909 40.3206 325.546 40.1224 325.27C39.9242 324.984 39.6599 324.753 39.3295 324.577C38.9992 324.4 38.6137 324.246 38.1733 324.114C37.7438 323.971 37.2923 323.817 36.8188 323.652C35.9158 323.343 35.2496 322.963 34.8201 322.512C34.3906 322.049 34.1759 321.449 34.1759 320.711C34.1759 320.084 34.319 319.533 34.6053 319.06C34.9027 318.586 35.3211 318.217 35.8607 317.953C36.4113 317.678 37.061 317.54 37.8099 317.54C38.5477 317.54 39.1864 317.678 39.726 317.953C40.2766 318.228 40.706 318.608 41.0144 319.093C41.3227 319.566 41.4769 320.117 41.4769 320.744H40.0233C40.0233 320.425 39.9407 320.111 39.7755 319.803C39.6103 319.495 39.357 319.241 39.0157 319.043C38.6853 318.834 38.2669 318.729 37.7603 318.729C37.3418 318.718 36.9674 318.79 36.6371 318.944C36.3177 319.087 36.0644 319.296 35.8772 319.572C35.701 319.847 35.613 320.183 35.613 320.579C35.613 320.954 35.69 321.256 35.8442 321.488C36.0094 321.719 36.2406 321.917 36.538 322.082C36.8463 322.237 37.2042 322.38 37.6116 322.512C38.0191 322.644 38.4706 322.793 38.9661 322.958C39.5277 323.145 40.0233 323.376 40.4527 323.652C40.8932 323.916 41.2346 324.257 41.4769 324.676C41.7301 325.094 41.8568 325.628 41.8568 326.278C41.8568 326.829 41.7081 327.352 41.4108 327.847C41.1245 328.332 40.695 328.728 40.1224 329.036C39.5498 329.345 38.8285 329.499 37.9585 329.499ZM47.1883 329.499C46.4064 329.499 45.7237 329.356 45.1401 329.07C44.5564 328.783 44.0939 328.392 43.7525 327.897C43.4222 327.401 43.2129 326.84 43.1248 326.212H44.4793C44.6115 326.84 44.9143 327.346 45.3878 327.732C45.8613 328.117 46.467 328.31 47.2048 328.31C47.7554 328.31 48.2289 328.183 48.6254 327.93C49.0218 327.665 49.3246 327.319 49.5339 326.889C49.7431 326.449 49.8477 325.959 49.8477 325.419C49.8477 324.846 49.7376 324.351 49.5173 323.932C49.3081 323.503 49.0053 323.167 48.6088 322.925C48.2234 322.683 47.7774 322.561 47.2709 322.561C46.6322 322.561 46.0871 322.699 45.6356 322.974C45.1951 323.25 44.8703 323.613 44.661 324.065H43.3231L44.2976 317.738H50.3928V318.944H45.3713L44.7106 322.479C44.9859 322.159 45.3548 321.901 45.8173 321.702C46.2798 321.493 46.8139 321.389 47.4195 321.389C47.9812 321.389 48.4932 321.493 48.9557 321.702C49.4182 321.901 49.8147 322.181 50.145 322.545C50.4864 322.897 50.7452 323.321 50.9214 323.817C51.0976 324.301 51.1857 324.83 51.1857 325.403C51.1857 325.953 51.0976 326.476 50.9214 326.972C50.7452 327.467 50.4864 327.908 50.145 328.293C49.8037 328.668 49.3852 328.965 48.8897 329.185C48.3941 329.394 47.827 329.499 47.1883 329.499ZM57.8754 329.301L53.8945 324.758L57.512 321.009H59.2134L55.0673 325.254L55.0838 324.263L59.6428 329.301H57.8754ZM52.7383 329.301V317.408H54.1258V329.301H52.7383Z" fill="#98A2B3"/>
<line x1="84.8135" y1="322.613" x2="492.259" y2="322.613" stroke="#D0D5DD" stroke-opacity="0.6" stroke-width="1.37651" stroke-dasharray="5.51 5.51"/>
<path d="M37.2482 385.798V371.296H38.388V385.798H37.2482ZM37.9585 384.56C37.1106 384.56 36.3728 384.405 35.7451 384.097C35.1174 383.789 34.6329 383.359 34.2915 382.809C33.9501 382.258 33.7794 381.619 33.7794 380.893H35.233C35.233 381.344 35.3377 381.762 35.5469 382.148C35.7561 382.522 36.0589 382.825 36.4554 383.056C36.8628 383.277 37.3639 383.387 37.9585 383.387C38.4761 383.387 38.9166 383.304 39.28 383.139C39.6544 382.963 39.9352 382.726 40.1224 382.429C40.3206 382.131 40.4197 381.796 40.4197 381.421C40.4197 380.97 40.3206 380.606 40.1224 380.331C39.9242 380.045 39.6599 379.813 39.3295 379.637C38.9992 379.461 38.6137 379.307 38.1733 379.175C37.7438 379.031 37.2923 378.877 36.8188 378.712C35.9158 378.404 35.2496 378.024 34.8201 377.572C34.3906 377.11 34.1759 376.51 34.1759 375.772C34.1759 375.144 34.319 374.594 34.6053 374.12C34.9027 373.647 35.3211 373.278 35.8607 373.013C36.4113 372.738 37.061 372.6 37.8099 372.6C38.5477 372.6 39.1864 372.738 39.726 373.013C40.2766 373.289 40.706 373.669 41.0144 374.153C41.3227 374.627 41.4769 375.177 41.4769 375.805H40.0233C40.0233 375.486 39.9407 375.172 39.7755 374.863C39.6103 374.555 39.357 374.302 39.0157 374.104C38.6853 373.894 38.2669 373.79 37.7603 373.79C37.3418 373.779 36.9674 373.85 36.6371 374.004C36.3177 374.148 36.0644 374.357 35.8772 374.632C35.701 374.907 35.613 375.243 35.613 375.64C35.613 376.014 35.69 376.317 35.8442 376.548C36.0094 376.78 36.2406 376.978 36.538 377.143C36.8463 377.297 37.2042 377.44 37.6116 377.572C38.0191 377.705 38.4706 377.853 38.9661 378.018C39.5277 378.206 40.0233 378.437 40.4527 378.712C40.8932 378.976 41.2346 379.318 41.4769 379.736C41.7301 380.155 41.8568 380.689 41.8568 381.339C41.8568 381.889 41.7081 382.412 41.4108 382.908C41.1245 383.392 40.695 383.789 40.1224 384.097C39.5498 384.405 38.8285 384.56 37.9585 384.56ZM47.7334 384.56C46.7203 384.56 45.8448 384.312 45.107 383.816C44.3802 383.31 43.8186 382.61 43.4222 381.718C43.0257 380.815 42.8275 379.769 42.8275 378.58C42.8275 377.391 43.0257 376.35 43.4222 375.458C43.8186 374.555 44.3802 373.856 45.107 373.36C45.8338 372.854 46.7093 372.6 47.7334 372.6C48.7465 372.6 49.6164 372.854 50.3432 373.36C51.07 373.856 51.6261 374.555 52.0116 375.458C52.408 376.35 52.6062 377.391 52.6062 378.58C52.6062 379.769 52.408 380.815 52.0116 381.718C51.6261 382.61 51.07 383.31 50.3432 383.816C49.6164 384.312 48.7465 384.56 47.7334 384.56ZM47.7334 383.337C48.3941 383.337 48.9833 383.15 49.5008 382.776C50.0184 382.39 50.4258 381.845 50.7232 381.14C51.0315 380.425 51.1857 379.571 51.1857 378.58C51.1857 377.589 51.0315 376.741 50.7232 376.036C50.4258 375.32 50.0184 374.775 49.5008 374.401C48.9833 374.027 48.3941 373.839 47.7334 373.839C47.0617 373.839 46.4615 374.027 45.9329 374.401C45.4154 374.775 45.0024 375.32 44.6941 376.036C44.3967 376.741 44.2481 377.589 44.2481 378.58C44.2481 379.571 44.3967 380.425 44.6941 381.14C45.0024 381.845 45.4154 382.39 45.9329 382.776C46.4615 383.15 47.0617 383.337 47.7334 383.337Z" fill="#98A2B3"/>
<line x1="87.0723" y1="377.673" x2="494.518" y2="377.673" stroke="#D0D5DD" stroke-opacity="0.6" stroke-width="1.37651" stroke-dasharray="8.26 8.26"/>
<path d="M86.7197 234.711C86.7197 231.67 89.1849 229.205 92.2258 229.205C95.2666 229.205 97.7318 231.67 97.7318 234.711V377.868H86.7197V234.711Z" fill="#6E39CB"/>
<path d="M161.051 182.403C161.051 179.363 163.516 176.897 166.557 176.897C169.598 176.897 172.063 179.363 172.063 182.403V377.867H161.051V182.403Z" fill="#6E39CB"/>
<path d="M238.136 253.982C238.136 250.941 240.601 248.476 243.642 248.476C246.683 248.476 249.148 250.941 249.148 253.982V377.867H238.136V253.982Z" fill="#6E39CB"/>
<path d="M317.973 234.711C317.973 231.67 320.438 229.205 323.479 229.205C326.52 229.205 328.985 231.67 328.985 234.711V377.868H317.973V234.711Z" fill="#6E39CB"/>
<path d="M397.811 333.82C397.811 330.779 400.276 328.313 403.317 328.313C406.357 328.313 408.823 330.779 408.823 333.82V377.868H397.811V333.82Z" fill="#6E39CB"/>
<path d="M476.271 333.82C476.271 330.779 478.737 328.313 481.778 328.313C484.818 328.313 487.284 330.779 487.284 333.82V377.868H476.271V333.82Z" fill="#6E39CB"/>
<path d="M97.7314 292.524C97.7314 289.483 100.197 287.018 103.237 287.018C106.278 287.018 108.743 289.483 108.743 292.524V377.867H97.7314V292.524Z" fill="#E9E1FF"/>
<path d="M172.063 264.993C172.063 261.952 174.529 259.487 177.57 259.487C180.61 259.487 183.076 261.952 183.076 264.993V377.867H172.063V264.993Z" fill="#E9E1FF"/>
<path d="M249.147 344.831C249.147 341.79 251.613 339.325 254.653 339.325C257.694 339.325 260.16 341.79 260.16 344.831V377.867H249.147V344.831Z" fill="#E9E1FF"/>
<path d="M328.985 322.807C328.985 319.766 331.45 317.301 334.491 317.301C337.532 317.301 339.997 319.766 339.997 322.807V377.867H328.985V322.807Z" fill="#E9E1FF"/>
<path d="M408.822 292.524C408.822 289.483 411.287 287.018 414.328 287.018C417.369 287.018 419.834 289.483 419.834 292.524V377.867H408.822V292.524Z" fill="#E9E1FF"/>
<path d="M487.283 292.524C487.283 289.483 489.748 287.018 492.789 287.018C495.83 287.018 498.295 289.483 498.295 292.524V377.867H487.283V292.524Z" fill="#E9E1FF"/>
</svg>
